<svg xmlns="http://www.w3.org/2000/svg" viewBox="0 0 24 24" fill="none">
  <circle cx="12" cy="12" r="9.5" stroke="currentColor" stroke-width="1.5"/>
  <path d="M8.8 18.1V15.7C7.2 16.1 6.5 15.2 6.2 14.6C6.1 14.4 5.7 13.7 5.2 13.5C4.8 13.2 4.3 12.6 5.2 12.6C6 12.6 6.6 13.3 6.8 13.6C7.8 15.2 9.5 14.8 10.2 14.5C10.3 13.8 10.6 13.3 10.9 13C8 12.7 5 11.5 5 6.4C5 4.9 5.5 3.8 6.4 2.9C6.3 2.6 5.8 1.2 6.5 0C6.5 0 7.7 -0.4 10.3 1.4C11.4 1.1 12.6 1.1 13.7 1.4C16.3 -0.4 17.5 0 17.5 0C18.2 1.2 17.7 2.6 17.6 2.9C18.5 3.8 19 4.9 19 6.4C19 11.5 16 12.7 13.1 13C13.5 13.4 13.8 14 13.8 14.9V18.1" transform="translate(0 2.2) scale(1 0.86)" stroke="currentColor" stroke-width="1.3" stroke-linecap="round" stroke-linejoin="round"/>
</svg>
