<svg xmlns="http://www.w3.org/2000/svg" viewBox="0 0 720 420" role="img" aria-label="Braamfontein district map preview">
  <defs>
    <linearGradient id="bg" x1="0" y1="0" x2="1" y2="1">
      <stop offset="0%" stop-color="#0f1217"/>
      <stop offset="100%" stop-color="#141922"/>
    </linearGradient>
    <linearGradient id="street" x1="0" y1="0" x2="1" y2="0">
      <stop offset="0%" stop-color="#2d3340"/>
      <stop offset="100%" stop-color="#1c222c"/>
    </linearGradient>
    <pattern id="grid" width="32" height="32" patternUnits="userSpaceOnUse">
      <path d="M32 0H0V32" fill="none" stroke="rgba(255,255,255,0.06)" stroke-width="1"/>
    </pattern>
  </defs>
  <rect width="720" height="420" rx="28" fill="url(#bg)"/>
  <rect width="720" height="420" rx="28" fill="url(#grid)" opacity="0.5"/>
  <g opacity="0.35">
    <rect x="40" y="70" width="640" height="22" rx="11" fill="url(#street)"/>
    <rect x="60" y="150" width="600" height="18" rx="9" fill="url(#street)"/>
    <rect x="80" y="230" width="560" height="18" rx="9" fill="url(#street)"/>
    <rect x="120" y="310" width="480" height="18" rx="9" fill="url(#street)"/>
    <rect x="120" y="95" width="18" height="250" rx="9" fill="url(#street)"/>
    <rect x="300" y="95" width="16" height="250" rx="8" fill="url(#street)"/>
    <rect x="490" y="95" width="16" height="250" rx="8" fill="url(#street)"/>
  </g>
  <g stroke="#caa060" stroke-width="2" opacity="0.7" fill="none">
    <path d="M80 230H640"/>
    <path d="M60 150H660"/>
  </g>
  <g fill="#caa060">
    <circle cx="170" cy="150" r="9"/>
    <circle cx="320" cy="230" r="9"/>
    <circle cx="500" cy="150" r="9"/>
    <circle cx="560" cy="310" r="9"/>
  </g>
  <g fill="#b15a45">
    <path d="M240 110c18 0 32 14 32 32 0 26-32 54-32 54s-32-28-32-54c0-18 14-32 32-32z"/>
    <circle cx="240" cy="142" r="12" fill="#0f1217"/>
  </g>
  <g fill="#e3c189">
    <path d="M400 270c18 0 32 14 32 32 0 26-32 54-32 54s-32-28-32-54c0-18 14-32 32-32z"/>
    <circle cx="400" cy="302" r="12" fill="#0f1217"/>
  </g>
  <g fill="#c8c1b7" font-family="Manrope, sans-serif" font-size="12" letter-spacing="2" opacity="0.75">
    <text x="70" y="60">BRAAMFONTEIN CORE</text>
    <text x="60" y="140">JUTA ST</text>
    <text x="60" y="220">DE BEER ST</text>
    <text x="120" y="330">AMESHOFF ST</text>
  </g>
  <g fill="#e3c189" opacity="0.9">
    <text x="520" y="85" font-family="Playfair Display, serif" font-size="18" letter-spacing="1">Gallery District</text>
  </g>
</svg>
